<svg width="126" height="126" viewBox="0 0 126 126" fill="none" xmlns="http://www.w3.org/2000/svg">
<g clip-path="url(#clip0_1590_6102)">
<path d="M62.9983 86.3501C59.4757 86.3501 56.5229 89.3028 56.5229 92.8254C56.5229 96.348 59.4757 99.3007 62.9983 99.3007C66.3913 99.3007 69.4736 96.348 69.3182 92.9808C69.4736 89.2769 66.5467 86.3501 62.9983 86.3501Z" fill="#ED7101"/>
<path d="M122.934 109.299C127 102.279 127.026 93.9133 122.986 86.9199L82.4243 16.6757C78.4096 9.60469 71.1572 5.40869 63.0242 5.40869C54.8912 5.40869 47.6389 9.63059 43.6242 16.6498L3.01102 86.9717C-1.02957 94.0428 -1.00367 102.461 3.08873 109.48C7.12932 116.421 14.3558 120.592 22.437 120.592H103.456C111.563 120.592 118.841 116.37 122.934 109.299ZM114.127 104.222C111.874 108.107 107.885 110.412 103.43 110.412H22.4111C18.0078 110.412 14.045 108.159 11.8433 104.351C9.61584 100.492 9.58994 95.8818 11.8174 91.9966L52.4306 21.7006C54.6322 17.8413 58.5692 15.562 63.0242 15.562C67.4533 15.562 71.4162 17.8672 73.6178 21.7265L114.205 92.0225C116.381 95.8041 116.355 100.363 114.127 104.222Z" fill="#ED7101"/>
<path d="M61.3924 40.8933C58.3101 41.7739 56.3934 44.5712 56.3934 47.9643C56.5488 50.0105 56.6783 52.0826 56.8338 54.1288C57.2741 61.9251 57.7144 69.5659 58.1547 77.3622C58.3101 80.0041 60.3563 81.9208 62.9983 81.9208C65.6402 81.9208 67.7123 79.8746 67.8418 77.2068C67.8418 75.6009 67.8418 74.1246 67.9972 72.4928C68.2821 67.4938 68.5929 62.4949 68.8778 57.496C69.0332 54.2583 69.3182 51.0206 69.4736 47.783C69.4736 46.6174 69.3182 45.5814 68.8778 44.5453C67.5569 41.6444 64.4746 40.168 61.3924 40.8933Z" fill="#ED7101"/>
</g>
<defs>
<clipPath id="clip0_1590_6102">
<rect width="126" height="126" fill="white"/>
</clipPath>
</defs>
</svg>
