<svg width="126" height="126" viewBox="0 0 126 126" fill="none" xmlns="http://www.w3.org/2000/svg">
<path d="M30.1613 114.188C30.1613 115.232 30.5761 116.233 31.3145 116.972C32.0529 117.71 33.0545 118.125 34.0988 118.125H98.6344C102.236 118.121 105.689 116.688 108.235 114.142C110.782 111.595 112.215 108.142 112.219 104.541V39.2964C112.219 38.2521 111.804 37.2506 111.065 36.5122C110.327 35.7737 109.326 35.3589 108.281 35.3589C107.237 35.3589 106.235 35.7737 105.497 36.5122C104.759 37.2506 104.344 38.2521 104.344 39.2964V104.541C104.344 107.691 101.784 110.25 98.6344 110.25H34.0988C33.0545 110.25 32.0529 110.665 31.3145 111.403C30.5761 112.142 30.1613 113.143 30.1613 114.188ZM50.9119 59.0626H42.3675C41.3232 59.0626 40.3217 59.4775 39.5833 60.2159C38.8448 60.9543 38.43 61.9558 38.43 63.0001C38.43 64.0444 38.8448 65.0459 39.5833 65.7844C40.3217 66.5228 41.3232 66.9376 42.3675 66.9376H50.9119C51.9562 66.9376 52.9577 66.5228 53.6961 65.7844C54.4345 65.0459 54.8494 64.0444 54.8494 63.0001C54.8494 61.9558 54.4345 60.9543 53.6961 60.2159C52.9577 59.4775 51.9562 59.0626 50.9119 59.0626Z" fill="#ED7101"/>
<path d="M83.6325 87.5703C84.6768 87.5703 85.6783 87.1554 86.4167 86.417C87.1552 85.6786 87.57 84.6771 87.57 83.6328C87.57 82.5885 87.1552 81.587 86.4167 80.8485C85.6783 80.1101 84.6768 79.6953 83.6325 79.6953H64.6537C63.6095 79.6953 62.6079 80.1101 61.8695 80.8485C61.1311 81.587 60.7162 82.5885 60.7162 83.6328C60.7162 84.6771 61.1311 85.6786 61.8695 86.417C62.6079 87.1554 63.6095 87.5703 64.6537 87.5703H83.6325ZM63 38.4185H42.3557C41.3114 38.4185 40.3099 38.8333 39.5715 39.5717C38.833 40.3101 38.4182 41.3117 38.4182 42.356C38.4182 43.4002 38.833 44.4018 39.5715 45.1402C40.3099 45.8786 41.3114 46.2935 42.3557 46.2935H63C64.0443 46.2935 65.0458 45.8786 65.7842 45.1402C66.5227 44.4018 66.9375 43.4002 66.9375 42.356C66.9375 41.3117 66.5227 40.3101 65.7842 39.5717C65.0458 38.8333 64.0443 38.4185 63 38.4185Z" fill="#ED7101"/>
<path d="M111.404 9.02873L96.894 23.5384L80.8526 8.90273C80.1242 8.21367 79.1516 7.98529 78.1988 7.87504H27.3656C23.7641 7.87921 20.3113 9.31176 17.7646 11.8584C15.218 14.4051 13.7854 17.8579 13.7812 21.4594C13.7812 21.4594 13.8521 105.84 13.9466 106.486L9.02869 111.404C8.65262 111.767 8.35265 112.201 8.14629 112.682C7.93993 113.162 7.83131 113.679 7.82676 114.202C7.82222 114.725 7.92185 115.243 8.11983 115.727C8.31781 116.211 8.61018 116.65 8.97988 117.02C9.34958 117.39 9.78921 117.682 10.2731 117.88C10.757 118.078 11.2755 118.178 11.7983 118.173C12.3211 118.169 12.8378 118.06 13.3182 117.854C13.7986 117.647 14.2331 117.347 14.5963 116.971L116.971 14.5964C117.347 14.2331 117.647 13.7987 117.854 13.3183C118.06 12.8379 118.169 12.3212 118.173 11.7984C118.178 11.2756 118.078 10.7571 117.88 10.2732C117.682 9.78926 117.39 9.34963 117.02 8.97993C116.65 8.61022 116.211 8.31785 115.727 8.11987C115.243 7.92189 114.724 7.82227 114.202 7.82681C113.679 7.83135 113.162 7.93997 112.682 8.14633C112.201 8.35269 111.767 8.65266 111.404 9.02873ZM85.5816 34.8509C84.5656 34.4214 83.6978 33.7035 83.0854 32.7861C82.4731 31.8686 82.1431 30.7918 82.1363 29.6888V20.7349L91.3224 29.11L85.5816 34.8509ZM21.6562 21.4594C21.6562 18.3094 24.2156 15.75 27.3656 15.75H74.2613V29.6888C74.2613 34.15 76.4426 38.1229 79.8249 40.6075L21.6562 98.7762V21.4594Z" fill="#ED7101"/>
</svg>
