<svg width="126" height="126" viewBox="0 0 126 126" fill="none" xmlns="http://www.w3.org/2000/svg">
<path fill-rule="evenodd" clip-rule="evenodd" d="M68.04 26.2343C68.0421 26.9242 67.9081 27.6077 67.6459 28.2458C67.3836 28.8839 66.9982 29.4641 66.5116 29.9531C66.025 30.4421 65.4468 30.8305 64.81 31.0959C64.1732 31.3614 63.4904 31.4987 62.8005 31.5001C54.91 31.5272 47.1088 33.1707 39.878 36.3292C32.6472 39.4877 26.1402 44.0942 20.7585 49.8646C20.2883 50.3689 19.7234 50.7757 19.096 51.0617C18.4686 51.3477 17.791 51.5073 17.1019 51.5314C16.4128 51.5555 15.7257 51.4437 15.0798 51.2023C14.4339 50.9609 13.8419 50.5946 13.3376 50.1244C12.8333 49.6542 12.4265 49.0893 12.1405 48.4619C11.8545 47.8345 11.6949 47.1569 11.6708 46.4678C11.6466 45.7787 11.7585 45.0916 11.9999 44.4458C12.2413 43.7999 12.6075 43.2079 13.0777 42.7036C19.4381 35.8828 27.1289 30.438 35.6755 26.7051C44.222 22.9723 53.4429 21.0307 62.769 21.0001C63.4584 20.998 64.1415 21.1317 64.7793 21.3937C65.417 21.6556 65.9969 22.0406 66.4859 22.5266C66.9749 23.0127 67.3633 23.5902 67.6291 24.2264C67.8948 24.8626 68.0327 25.5449 68.0347 26.2343H68.04ZM80.2882 22.5383C81.2728 21.5541 82.6079 21.0012 84 21.0012C85.3921 21.0012 86.7272 21.5541 87.7117 22.5383L94.5 29.3266L101.288 22.5383C101.773 22.0369 102.352 21.6369 102.992 21.3618C103.633 21.0866 104.322 20.9418 105.019 20.9357C105.716 20.9297 106.407 21.0625 107.052 21.3265C107.698 21.5905 108.284 21.9803 108.777 22.4732C109.27 22.9662 109.66 23.5523 109.924 24.1976C110.188 24.8428 110.32 25.5341 110.314 26.2312C110.308 26.9283 110.163 27.6172 109.888 28.2577C109.613 28.8982 109.213 29.4775 108.712 29.9618L101.923 36.7501L108.712 43.5383C109.668 44.5285 110.197 45.8546 110.185 47.2312C110.173 48.6077 109.621 49.9245 108.648 50.8979C107.674 51.8713 106.358 52.4234 104.981 52.4353C103.605 52.4473 102.278 51.9181 101.288 50.9618L94.5 44.1736L87.7117 50.9618C87.2274 51.4632 86.6481 51.8632 86.0076 52.1383C85.3671 52.4135 84.6782 52.5583 83.9811 52.5644C83.284 52.5704 82.5927 52.4376 81.9475 52.1736C81.3023 51.9096 80.7161 51.5198 80.2232 51.0269C79.7302 50.5339 79.3404 49.9478 79.0764 49.3026C78.8124 48.6574 78.6796 47.966 78.6857 47.269C78.6917 46.5719 78.8365 45.883 79.1117 45.2424C79.3868 44.6019 79.7868 44.0226 80.2882 43.5383L87.0765 36.7501L80.2882 29.9618C79.304 28.9773 78.7511 27.6422 78.7511 26.2501C78.7511 24.8579 79.304 23.5228 80.2882 22.5383ZM68.0295 47.2238C68.0365 48.6153 67.4907 49.9526 66.5122 50.942C65.5337 51.9313 64.2025 52.4917 62.811 52.5001C57.8012 52.5262 52.8497 53.5764 48.2606 55.5861C43.6716 57.5958 39.5419 60.5225 36.1252 64.1866C35.655 64.6909 35.0901 65.0977 34.4627 65.3837C33.8353 65.6697 33.1577 65.8293 32.4686 65.8534C31.7795 65.8775 31.0924 65.7657 30.4466 65.5243C29.8007 65.2829 29.2087 64.9166 28.7044 64.4464C28.2 63.9762 27.7933 63.4113 27.5073 62.7839C27.2213 62.1565 27.0616 61.4789 27.0375 60.7898C26.9888 59.3981 27.4949 58.0441 28.4445 57.0256C32.8371 52.3149 38.1465 48.552 44.0465 45.9681C49.9464 43.3842 56.3124 42.0339 62.7532 42.0001C63.4427 41.9966 64.126 42.129 64.7643 42.3896C65.4026 42.6503 65.9833 43.0341 66.4733 43.5192C66.9632 44.0042 67.3528 44.5811 67.6198 45.2167C67.8868 45.8524 68.026 46.5344 68.0295 47.2238ZM71.274 75.2011C67.3011 73.4971 62.8992 73.0607 58.6691 73.9514C54.439 74.8422 50.5868 77.0167 47.6385 80.1781C47.1683 80.6824 46.6034 81.0892 45.976 81.3752C45.3486 81.6612 44.671 81.8208 43.9819 81.8449C42.5902 81.8937 41.2361 81.3875 40.2176 80.4379C39.1991 79.4883 38.5995 78.173 38.5508 76.7813C38.502 75.3896 39.0081 74.0356 39.9577 73.0171C42.8928 69.8689 46.4419 67.3556 50.3861 65.6323C54.3302 63.9091 58.5856 63.0124 62.8898 62.9976C67.1939 62.9829 71.4554 63.8503 75.4113 65.5465C79.3671 67.2427 82.9334 69.7316 85.89 72.8596C86.3636 73.3608 86.7339 73.9504 86.9797 74.5947C87.2255 75.239 87.3419 75.9255 87.3224 76.6148C87.3029 77.3041 87.1479 77.9829 86.866 78.6123C86.5842 79.2417 86.1812 79.8094 85.68 80.2831C85.1788 80.7567 84.5892 81.127 83.9448 81.3728C83.3005 81.6186 82.6141 81.735 81.9247 81.7155C81.2354 81.696 80.5567 81.5409 79.9273 81.2591C79.2979 80.9773 78.7301 80.5743 78.2565 80.0731C76.2861 77.9893 73.9097 76.3313 71.274 75.2011ZM52.5 94.5001C52.5 91.7153 53.6062 89.0446 55.5754 87.0754C57.5445 85.1063 60.2152 84.0001 63 84.0001C65.7848 84.0001 68.4555 85.1063 70.4246 87.0754C72.3937 89.0446 73.5 91.7153 73.5 94.5001C73.5 97.2848 72.3937 99.9556 70.4246 101.925C68.4555 103.894 65.7848 105 63 105C60.2152 105 57.5445 103.894 55.5754 101.925C53.6062 99.9556 52.5 97.2848 52.5 94.5001Z" fill="#ED7101"/>
</svg>
