<svg width="126" height="126" viewBox="0 0 126 126" fill="none" xmlns="http://www.w3.org/2000/svg">
<path d="M108.773 36.225C106.943 24.7866 96.9609 16.0256 85.0303 16.0256C82.7269 16.0256 80.4038 16.3603 78.1988 17.01C70.9341 7.65845 58.3931 2.77595 45.675 4.64627C28.4878 7.16627 15.9666 21.1247 16.0256 36.7369C5.78616 41.3359 -0.315 52.7231 2.59875 64.6164C5.1345 74.968 14.5215 82.1067 25.0917 82.6521L30.5491 72.8615H26.3773C19.2938 72.8615 12.9583 67.8668 11.8853 60.8659C11.3302 57.3723 12.1019 53.7975 14.0488 50.844C15.9956 47.8906 18.9768 45.7722 22.4063 44.9052C23.5843 44.6052 24.6098 43.8804 25.2857 42.8701C25.9617 41.8599 26.2403 40.6354 26.0682 39.4321C24.3534 27.5625 33.7837 16.3406 47.1122 14.3719C48.4509 14.175 49.7897 14.0963 51.0891 14.0963C59.9091 14.0963 68.0203 18.3881 72.0563 25.456C72.6793 26.5608 73.7063 27.3811 74.9215 27.7445C76.1367 28.108 77.4455 27.9863 78.5728 27.405C80.5719 26.385 82.7861 25.8584 85.0303 25.8694C92.8266 25.8694 99.2053 32.2088 99.2447 39.9853C99.2447 42.4207 101.05 44.5036 103.495 44.8383C106.395 45.236 109.165 46.4428 110.878 48.8171C119.178 60.3284 111.057 72.8615 100.072 72.8615H95.4529L100.895 82.6265C113.502 81.8114 124.171 71.32 124.13 58.5684C124.098 48.4628 117.944 39.7392 108.773 36.225Z" fill="#ED7101"/>
<path d="M87.3357 121.749H38.6643C33.5928 121.749 29.0292 119.139 26.46 114.764C23.8908 110.39 23.8317 105.133 26.3005 100.702L50.6362 57.0405C53.172 52.4927 57.7927 49.7778 62.998 49.7778C68.2054 49.7778 72.828 52.4927 75.3637 57.0405L99.6975 100.702C100.912 102.852 101.536 105.284 101.509 107.753C101.481 110.222 100.802 112.64 99.54 114.762C98.3015 116.899 96.5206 118.67 94.3775 119.897C92.2344 121.124 89.8051 121.763 87.3357 121.749ZM63 59.6235C62.2381 59.6235 60.3481 59.8381 59.2338 61.8364L34.8981 105.493C33.8133 107.439 34.5712 109.14 34.9473 109.779C35.3233 110.417 36.4376 111.906 38.6643 111.906H87.3377C89.5643 111.906 90.6787 110.417 91.0547 109.777C91.4307 109.138 92.1867 107.439 91.1019 105.495L66.7682 61.8345C65.6539 59.8381 63.7619 59.6235 63 59.6235Z" fill="#ED7101"/>
<path d="M63 92.5884C61.6946 92.5884 60.4427 92.0699 59.5197 91.1468C58.5967 90.2238 58.0781 88.9719 58.0781 87.6665V74.1274C58.0781 72.8221 58.5967 71.5702 59.5197 70.6471C60.4427 69.7241 61.6946 69.2056 63 69.2056C64.3054 69.2056 65.5573 69.7241 66.4803 70.6471C67.4033 71.5702 67.9219 72.8221 67.9219 74.1274V87.6665C67.9219 88.9719 67.4033 90.2238 66.4803 91.1468C65.5573 92.0699 64.3054 92.5884 63 92.5884Z" fill="#ED7101"/>
<path d="M63 107.317C65.9129 107.317 68.2743 104.955 68.2743 102.042C68.2743 99.1294 65.9129 96.7681 63 96.7681C60.0871 96.7681 57.7257 99.1294 57.7257 102.042C57.7257 104.955 60.0871 107.317 63 107.317Z" fill="#ED7101"/>
</svg>
